<svg version="1.1" id="Layer_1" xmlns="http://www.w3.org/2000/svg" xmlns:xlink="http://www.w3.org/1999/xlink" x="0px" y="0px"
	 width="100%" viewBox="0 0 832 672" enable-background="new 0 0 832 672" xml:space="preserve">
<path fill="#000000" opacity="1.000000" stroke="none" 
	d="
M526.072876,59.728973 
	C558.536438,72.709549 588.428711,89.483429 614.486572,112.255661 
	C634.338501,129.604431 651.943054,149.213089 666.619141,171.282608 
	C682.744568,195.531723 696.178589,221.132828 705.061096,248.929077 
	C716.804565,285.678436 720.856201,323.352203 717.383545,361.768921 
	C714.511963,393.536407 708.864441,424.725830 696.241638,454.267548 
	C678.813660,495.054596 654.949585,531.536072 622.017883,561.483765 
	C600.727722,580.844849 576.611023,596.292236 550.799683,609.106201 
	C522.051941,623.377869 491.790253,632.304871 459.980316,636.484558 
	C439.259491,639.207214 418.576874,640.323853 397.742767,638.414368 
	C369.280029,635.805664 341.479279,630.320679 314.762604,619.890137 
	C284.405273,608.038147 256.254333,592.209351 231.641830,570.889221 
	C202.154266,545.346191 176.413895,516.708252 158.614594,481.243683 
	C148.325638,460.743317 138.990494,440.078949 133.241592,417.931793 
	C126.613388,392.397308 124.005722,366.385925 123.421036,339.949707 
	C122.500839,298.343353 132.002502,258.899139 147.338181,220.928345 
	C162.191650,184.151428 183.927017,151.546188 213.506378,124.477882 
	C227.418243,111.747025 241.491745,99.236649 257.152710,88.771965 
	C279.032318,74.151970 303.197876,64.194115 327.996887,55.642925 
	C362.107056,43.881065 397.196014,39.171310 433.142975,40.906898 
	C464.915802,42.440948 495.797913,48.687756 526.072876,59.728973 
M264.522278,475.986938 
	C285.519318,499.671783 310.598328,517.690063 339.654999,530.221252 
	C375.849518,545.830811 413.702209,551.282288 452.432007,545.127563 
	C490.726379,539.042053 525.449158,523.779358 554.657532,497.447662 
	C573.961914,480.044525 591.039978,460.934052 602.751282,437.381897 
	C614.421997,413.911530 622.385620,389.470245 625.031372,363.280365 
	C626.931274,344.473816 626.989685,325.772064 624.196960,307.077271 
	C619.444641,275.265198 606.055725,246.838226 588.258362,220.635391 
	C569.933228,193.655533 546.017639,172.363647 516.764221,157.414948 
	C489.277252,143.368896 460.217529,134.833420 429.334778,133.462723 
	C396.197083,131.991898 364.650299,138.357040 334.388123,152.458755 
	C289.814087,173.229568 255.990692,204.645660 234.794174,249.206802 
	C222.131424,275.827545 214.905624,303.838867 214.172256,333.410767 
	C213.857712,346.094574 215.489548,358.589447 217.127365,371.150146 
	C222.285431,410.708160 240.101227,444.427368 264.522278,475.986938 
M316.284454,528.294312 
	C309.382172,523.936523 302.520813,519.512207 295.569244,515.234436 
	C280.275177,505.822815 265.922180,506.837341 251.053894,517.328796 
	C234.712158,528.859985 232.135803,555.250122 244.339447,569.726257 
	C257.734161,585.615234 275.037109,590.033936 294.683105,587.139465 
	C308.813751,585.057556 321.824097,579.759094 334.258362,572.549805 
	C348.066406,564.544006 362.650085,558.605896 379.346405,561.658325 
	C393.199280,564.190796 401.592590,570.952148 403.774658,581.902405 
	C405.129608,588.701660 401.560730,596.066223 395.680664,598.605042 
	C391.127563,600.570801 386.936798,598.806702 384.625610,593.951416 
	C382.643494,589.787292 383.906158,586.430542 388.746002,584.540405 
	C391.883636,583.315002 392.545959,581.321716 391.363068,578.709778 
	C389.173370,573.874756 385.102997,571.638000 379.883636,571.175964 
	C374.836700,570.729248 370.731567,571.802490 368.154053,576.739136 
	C363.675232,585.317322 367.602051,596.551880 377.436218,602.951111 
	C378.998962,603.967957 381.298950,604.232971 381.786163,606.625000 
	C378.706635,607.102966 378.668152,607.177734 376.683289,606.156433 
	C367.419067,601.389282 362.037201,593.845032 360.698364,583.489380 
	C360.355103,580.834534 360.195923,578.104736 358.173950,576.089478 
	C354.902771,572.829224 345.476624,572.399048 342.363068,575.275574 
	C335.712646,581.419678 334.273804,587.823181 338.665588,593.191895 
	C344.762878,600.645691 352.515930,606.090576 360.854492,610.772644 
	C362.421356,611.652405 364.766235,611.973450 364.580353,615.012329 
	C360.855713,615.378967 357.607880,614.293152 354.443817,612.818481 
	C345.956879,608.863037 339.573273,602.220337 332.955444,595.894958 
	C323.956543,587.293884 312.128571,586.838257 302.536072,594.902161 
	C300.410828,596.688782 298.387939,598.705139 298.770721,602.274475 
	C306.769684,603.044678 314.077484,605.513855 321.272675,608.703247 
	C332.838348,613.829956 344.143829,619.580505 356.141479,623.713257 
	C376.362305,630.678772 393.793915,626.336975 407.366577,609.934265 
	C415.643066,599.932007 419.485840,587.912170 414.379425,575.440430 
	C407.946503,559.728760 395.065216,551.801575 378.252106,550.296814 
	C362.129181,548.853882 347.370270,553.808533 332.819611,559.940796 
	C314.479828,567.669739 295.898956,574.414307 275.445587,573.203613 
	C262.546417,572.440125 251.116638,563.061646 248.353165,550.435608 
	C247.083374,544.634094 247.924881,539.049255 251.670227,534.341980 
	C255.947037,528.966675 262.001343,530.192017 264.429718,536.610901 
	C266.030304,540.841614 264.917572,544.558472 262.300659,547.816956 
	C259.597351,551.183044 260.278564,553.801453 263.269531,556.405151 
	C265.305878,558.177856 267.512878,559.637024 270.029816,560.590515 
	C273.282623,561.822815 276.673004,562.409729 279.467896,559.851929 
	C282.218231,557.334900 282.995483,554.018066 282.239532,550.262512 
	C281.117065,544.685913 279.740906,539.226624 276.967285,534.195374 
	C276.373444,533.118103 275.288239,531.944824 276.792542,530.453369 
	C279.821411,530.710327 281.066101,533.120178 282.346710,535.429443 
	C286.112427,542.220093 287.806122,549.681396 289.372986,557.190613 
	C290.228058,561.288330 298.424316,566.991028 301.760132,565.919312 
	C305.958710,564.570435 310.931519,555.284302 309.908386,550.876099 
	C307.700592,541.363892 300.639038,535.342712 294.244934,528.811951 
	C292.980225,527.520203 290.747406,526.783875 290.974792,524.042725 
	C293.871155,523.843750 295.771240,525.475647 297.796936,526.816956 
	C305.380127,531.838257 309.659363,539.769165 315.290771,546.522339 
	C322.686737,555.391479 339.240173,552.365540 343.467804,540.887329 
	C334.522125,537.115784 325.162140,534.024231 316.284454,528.294312 
M189.978027,375.662018 
	C188.748077,371.919647 186.248322,369.197815 182.541794,368.155548 
	C179.538101,367.310883 179.239380,370.883087 177.556335,372.269348 
	C173.563553,375.557983 169.418213,374.765442 166.929001,369.936157 
	C164.698318,365.608459 167.185150,359.751465 172.422012,357.856903 
	C178.194458,355.768524 183.819534,355.956360 188.983246,359.925507 
	C193.684616,363.539307 196.425995,368.426239 198.267609,373.849426 
	C202.849060,387.340820 199.648666,400.150635 194.401337,412.665802 
	C189.444962,424.487000 183.487961,435.910309 179.747879,448.212921 
	C174.181534,466.522949 171.841034,484.237640 180.706726,502.998260 
	C189.806442,522.254089 213.683685,525.511047 226.704681,519.906799 
	C249.422104,510.129181 254.974365,488.326508 246.897415,467.730316 
	C240.297241,450.899902 227.651611,437.003021 220.134781,420.395172 
	C219.160706,418.242981 217.584503,418.175751 215.643555,419.452118 
	C207.330841,424.918488 207.070801,438.678741 215.379074,443.907379 
	C221.039581,447.469757 226.605453,451.122223 231.303009,455.907990 
	C233.307236,457.949860 235.564575,460.008636 235.705322,463.808990 
	C231.252777,462.293640 228.765732,459.048950 225.713486,456.658539 
	C220.685471,452.720795 215.495865,449.158203 209.144440,447.746826 
	C203.765244,446.551483 196.407562,451.361450 195.356949,456.686676 
	C194.375900,461.659302 199.011856,467.892487 204.534042,468.871460 
	C206.819641,469.276642 209.153091,469.411407 211.464508,469.671448 
	C217.745087,470.377991 223.472183,472.420319 228.093704,476.886414 
	C229.691437,478.430450 231.171295,480.210785 229.577133,483.701752 
	C224.902328,477.070892 218.287720,475.421173 211.652573,473.789703 
	C208.938919,473.122437 206.389709,473.205322 204.032425,474.919434 
	C196.600113,480.323792 196.250519,493.934448 203.441605,499.647766 
	C205.644928,501.398285 208.332504,502.213654 210.963104,501.468231 
	C213.886475,500.639832 212.515533,497.816376 212.638702,495.853668 
	C212.948746,490.913757 214.846298,488.703796 219.452377,488.393707 
	C225.921722,487.958191 230.740677,494.638123 228.146576,500.629578 
	C225.817078,506.009949 221.472763,508.855011 215.716980,509.301331 
	C204.169724,510.196716 193.817474,503.214935 189.920563,491.474243 
	C186.278610,480.501801 185.572693,469.252777 189.333130,458.135132 
	C194.622147,442.498322 201.344864,427.424377 208.341492,412.500549 
	C216.560760,394.968903 214.067078,378.173004 205.651093,361.681030 
	C195.340057,341.475494 163.320801,340.214478 151.149307,355.094086 
	C137.235641,372.103516 133.286316,390.381195 141.644196,410.925568 
	C147.596527,425.556915 155.535522,439.386780 159.341156,454.884430 
	C159.625702,456.043213 160.140594,457.082947 161.421158,457.473511 
	C173.254974,451.868378 177.265732,437.177917 169.577591,426.982544 
	C166.071320,422.332825 162.255020,417.905182 158.407516,413.527863 
	C154.732819,409.347168 151.740768,404.791931 149.789612,399.581604 
	C149.191986,397.985809 147.839172,396.307251 149.802490,394.607666 
	C152.171509,394.806122 152.461182,396.928558 153.255783,398.418152 
	C157.304596,406.008453 162.679276,412.541931 168.997971,418.308228 
	C173.639938,422.544373 185.785461,419.799622 188.334625,414.037659 
	C190.969086,408.082916 187.343948,399.387787 181.149277,397.131348 
	C175.824295,395.191650 170.432373,393.421906 165.579254,390.420105 
	C162.942749,388.789368 160.432343,386.983032 159.940155,382.470703 
	C165.003204,384.309845 167.812225,388.024841 171.602325,390.162628 
	C176.985641,393.198975 181.813599,393.326935 186.937622,389.614624 
	C191.917725,386.006531 192.157822,381.546478 189.978027,375.662018 
M615.840454,484.262939 
	C614.347290,484.988525 613.380676,487.166138 611.162781,486.040802 
	C610.928833,484.091064 612.453186,483.426758 613.531799,482.466339 
	C619.290405,477.338867 625.894226,475.249878 633.709290,475.505005 
	C642.662109,475.797211 644.011230,473.714813 645.771973,465.129822 
	C647.314514,457.609100 641.757202,454.978241 637.635681,451.276611 
	C634.993591,448.903778 631.963684,448.928467 628.891663,450.901001 
	C624.257690,453.876434 619.762146,456.989868 615.749817,460.807953 
	C612.453979,463.944214 608.914673,466.824554 605.483337,469.818329 
	C604.837219,465.756775 607.059509,463.512695 608.985474,461.157562 
	C614.617737,454.269897 621.724792,448.952789 628.451477,443.262329 
	C635.312988,437.457916 634.763611,420.781097 622.716003,416.018707 
	C620.876221,420.384857 619.751526,425.057587 617.432739,429.276917 
	C612.125977,438.933289 605.779236,447.920532 599.884094,457.189392 
	C589.933472,472.834625 588.451416,488.837799 595.342712,506.125549 
	C603.917358,527.636292 632.062073,535.146973 649.201050,519.789001 
	C670.870728,500.371246 672.677002,480.788605 664.541504,453.964844 
	C660.483643,440.585785 653.295593,428.376556 647.205627,415.790649 
	C640.457458,401.844574 638.371033,387.638458 643.817688,372.800964 
	C648.143250,361.017609 662.720825,355.550079 673.587463,361.565887 
	C676.832520,363.362396 678.523071,366.102509 678.125549,369.762360 
	C677.777832,372.963623 676.819275,376.167297 673.382812,377.386749 
	C669.851379,378.639893 667.362244,376.493347 665.125549,374.103333 
	C660.779785,369.459625 656.719421,369.811554 653.368225,375.310333 
	C650.794006,379.534149 649.782959,384.084625 652.757202,388.481964 
	C655.777283,392.947052 660.378601,394.332672 665.506714,393.384857 
	C672.806091,392.035767 678.852234,388.403564 683.558838,382.594177 
	C684.617249,381.287811 685.252808,379.224091 687.535339,379.733917 
	C688.295776,380.642548 688.036987,381.486572 687.589905,382.168091 
	C684.002930,387.636353 680.239319,392.881989 673.585876,395.093506 
	C669.010376,396.614288 664.489075,398.313385 660.006287,400.091156 
	C657.798706,400.966644 656.117126,402.431641 655.336548,404.934540 
	C653.452637,410.976013 654.214233,414.024017 658.894470,417.699768 
	C664.954468,422.459137 668.098328,422.713959 673.778931,418.929993 
	C681.149292,414.020447 686.629333,407.439972 691.009521,399.811218 
	C692.041504,398.013885 692.754822,395.505920 695.462219,395.312836 
	C696.445068,396.858856 695.679016,397.897888 695.200684,398.901764 
	C691.526306,406.612915 687.182190,413.852783 680.956787,419.859985 
	C677.491028,423.204315 673.814697,426.383972 671.210632,430.536438 
	C665.985352,438.868439 668.969971,453.526825 677.003052,458.833496 
	C679.499084,460.482361 682.021912,460.987671 682.471619,457.163483 
	C684.107971,443.247620 691.003784,431.366455 696.736389,419.010956 
	C701.660217,408.398712 705.413330,397.688446 705.022705,385.490082 
	C704.643433,373.648163 700.495178,364.555695 691.943054,356.517731 
	C671.567932,337.367767 642.483887,349.635254 635.276001,369.226257 
	C630.271729,382.828003 630.068359,396.525085 634.168274,410.351685 
	C638.491455,424.931213 646.223511,438.175171 650.956055,452.557220 
	C657.496460,472.433441 658.338196,491.790375 643.344177,508.955017 
	C639.129395,513.779968 633.927917,516.375610 627.731934,516.797668 
	C617.441528,517.498596 610.575012,510.259583 612.693604,501.239502 
	C613.824463,496.424683 617.775513,495.239349 621.823669,494.945984 
	C625.261780,494.696838 627.156006,497.121765 628.013245,500.369965 
	C629.628601,506.490997 631.644531,507.108032 636.432495,502.734436 
	C640.964294,498.594818 642.848328,493.228210 641.399841,487.330719 
	C640.163086,482.295349 635.278748,480.782227 630.976074,479.835541 
	C625.688599,478.672211 620.913818,481.157349 615.840454,484.262939 
M694.526489,253.936584 
	C689.042786,245.285782 684.605530,236.227097 683.662170,225.825775 
	C683.466858,223.672485 683.679993,220.908676 681.568726,220.051453 
	C678.985657,219.002731 676.892761,221.224121 675.153748,222.955017 
	C668.494751,229.583023 667.186218,240.909180 672.461609,248.751144 
	C676.825684,255.238327 681.690308,261.387207 686.272278,267.729950 
	C689.347290,271.986694 691.952209,276.486603 693.410522,281.901581 
	C690.416321,281.907318 689.917053,279.860901 688.926880,278.492889 
	C684.337769,272.153046 679.923828,265.683594 674.017029,260.424469 
	C670.278320,257.095673 666.614929,257.033936 662.171326,259.425079 
	C656.887512,262.268341 657.326538,266.837952 657.329346,271.506134 
	C657.332275,276.414948 661.298340,276.712006 664.573853,277.575867 
	C672.044800,279.546143 678.553833,282.935760 683.067383,289.436798 
	C684.131531,290.969482 685.641174,292.522095 684.293274,294.933014 
	C682.006226,294.426300 680.998413,292.565430 679.696045,291.180145 
	C676.411621,287.686584 672.480896,285.309418 667.900391,283.987335 
	C661.456665,282.127441 653.469727,285.318939 650.667053,290.841431 
	C648.057190,295.984039 650.192871,302.620209 655.876099,307.027435 
	C660.394836,310.531586 661.782532,310.204803 664.153748,305.078064 
	C667.090515,298.728607 672.594604,297.916901 677.113403,303.233551 
	C679.582153,306.138184 681.444214,309.452209 679.690308,313.286377 
	C677.639771,317.768951 674.101501,320.775360 669.018433,321.301697 
	C658.371399,322.404327 647.187988,315.914398 643.584167,305.726562 
	C639.904358,295.324127 640.840942,284.856567 645.019409,274.584961 
	C650.854431,260.241333 658.294189,246.573410 663.114868,231.811523 
	C669.329773,212.780090 669.831299,194.131363 660.659546,175.567459 
	C653.064453,160.194473 629.257996,148.925949 611.751221,160.209396 
	C594.585510,171.273087 583.955322,198.729568 596.087708,216.196472 
	C605.664978,229.984863 615.391052,243.793488 621.619446,259.609070 
	C622.845703,262.722809 624.838928,263.272034 627.246216,260.648895 
	C630.661621,256.927216 633.284912,252.772964 634.895691,247.912689 
	C636.189026,244.010071 635.139709,240.981262 632.145874,238.596603 
	C630.210571,237.055130 628.025208,235.758560 625.798645,234.663864 
	C616.583984,230.133316 609.373779,223.382355 603.630615,214.977066 
	C602.853271,213.839325 601.473938,212.774506 602.532349,210.789444 
	C606.032227,211.911713 608.198914,214.709229 610.617920,217.073349 
	C615.877258,222.213364 621.133240,227.258911 628.195129,229.990417 
	C634.508972,232.432617 639.119446,229.713364 643.444458,225.569565 
	C648.387329,220.833801 644.993408,215.312363 644.261902,210.475479 
	C643.540588,205.705826 638.272583,207.638901 634.894592,207.127808 
	C628.202026,206.115204 621.093323,206.621948 615.525818,201.730072 
	C613.154358,199.646393 610.404968,197.642670 610.874695,193.566971 
	C614.072205,194.233521 616.296326,196.051590 618.728821,197.410812 
	C621.344666,198.872498 623.877502,200.412720 626.857056,201.152374 
	C633.426880,202.783325 637.458862,201.426956 640.653259,196.256378 
	C644.045410,190.765640 643.729309,185.338654 639.743591,180.639206 
	C636.316650,176.598618 633.580750,176.611755 630.159302,180.673645 
	C627.797668,183.477325 625.139526,185.744308 621.138245,184.382202 
	C617.473694,183.134705 613.632263,181.692703 612.850769,177.316116 
	C612.067322,172.928436 614.937561,170.218384 618.262451,167.968399 
	C620.535400,166.430298 623.002380,165.563583 625.773438,165.671310 
	C635.218140,166.038437 643.038330,169.722794 647.967163,177.902603 
	C655.822144,190.938660 656.207581,205.313980 652.710938,219.468506 
	C649.157776,233.852371 642.061096,247.070679 636.634949,260.845428 
	C631.609924,273.601929 627.805359,286.734283 630.384705,300.722748 
	C633.841187,319.468323 646.264893,333.973022 668.228027,332.770691 
	C687.580688,331.711212 703.533691,317.287109 704.595398,298.358032 
	C705.461670,282.913147 702.315613,268.246979 694.526489,253.936584 
M185.500366,170.009140 
	C172.586136,189.391663 172.667603,210.061539 179.992691,231.157227 
	C184.957565,245.455688 192.123474,258.918274 196.501877,273.474915 
	C199.794388,284.421326 201.007874,295.311493 196.440536,306.185822 
	C192.156647,316.385254 178.646088,322.831970 169.210175,319.294678 
	C164.735107,317.617126 162.696823,314.292114 162.820068,309.635834 
	C162.935425,305.277527 165.862061,303.101959 169.563156,301.949341 
	C173.096115,300.849091 176.148163,302.219421 178.604767,304.786896 
	C181.162125,307.459625 183.147827,306.579956 185.222031,304.158722 
	C188.794327,299.988770 189.893402,292.895050 187.508453,288.212860 
	C185.617828,284.501190 182.742172,282.898102 178.499573,283.857880 
	C173.330276,285.027252 168.976257,287.681946 164.787338,290.774384 
	C163.164047,291.972809 161.820251,293.911835 159.027878,293.692261 
	C158.983398,290.232025 161.204056,288.419434 163.279099,286.633881 
	C168.448288,282.185791 174.716705,279.852600 181.105850,277.919250 
	C186.187607,276.381500 187.895233,272.761627 188.736740,267.941376 
	C189.836151,261.643860 185.189636,259.511169 181.313339,256.841980 
	C177.655304,254.323059 173.842194,254.387283 170.169891,257.072601 
	C163.759155,261.760284 158.785126,267.731018 154.482620,274.343506 
	C153.367783,276.056885 152.937469,278.424042 150.124283,279.333618 
	C149.986740,274.454895 151.902817,270.522766 154.055649,266.679901 
	C158.169174,259.337158 164.327164,253.608536 169.569290,247.156967 
	C174.433990,241.169907 173.453003,228.782471 167.689285,223.820847 
	C163.309616,220.050735 161.325562,220.463959 159.502243,225.944260 
	C156.651810,234.511627 153.057022,242.711578 148.510742,250.515198 
	C140.031967,265.068878 135.301590,280.609558 136.125275,297.638641 
	C136.976654,315.240753 149.982971,329.696686 167.679184,332.532074 
	C185.274750,335.351318 203.157669,324.772949 208.951599,308.154358 
	C214.260361,292.927368 211.814392,277.880768 207.524048,263.033142 
	C203.409897,248.795212 196.849838,235.427780 192.069427,221.385300 
	C187.461365,207.849030 188.322693,194.866730 192.792953,181.820572 
	C196.849640,169.981445 208.378174,163.216217 220.773331,164.917358 
	C226.416931,165.691879 230.977325,170.635727 230.704742,176.240341 
	C230.491837,180.617783 227.488373,183.152283 223.501328,184.128494 
	C220.095734,184.962326 217.859543,183.061813 216.474609,179.945847 
	C214.033554,174.453690 212.380844,174.066483 207.468750,177.684967 
	C202.549179,181.308960 201.614899,186.463226 202.526733,191.977844 
	C203.203674,196.071976 205.834824,199.053818 210.099976,199.602524 
	C217.772568,200.589584 225.082550,199.877670 230.875732,193.769638 
	C232.144211,192.432236 233.228455,190.461639 235.652588,190.794647 
	C235.226929,197.094940 230.091858,202.401810 222.290878,204.104584 
	C217.756119,205.094421 213.084000,205.449387 208.478027,206.119949 
	C202.714310,206.959061 196.380753,212.910599 196.888885,218.247711 
	C197.386246,223.471725 202.676544,224.506363 206.703629,226.145020 
	C209.710037,227.368347 212.876160,227.079224 215.949936,225.782745 
	C220.605637,223.819046 224.652512,220.992096 228.545120,217.798615 
	C235.179199,212.356079 238.961182,204.759872 243.816757,197.456192 
	C245.296967,200.037018 244.155396,201.782181 243.438766,203.553757 
	C238.622040,215.461075 230.235626,224.103928 219.235001,230.526901 
	C208.678314,236.690720 208.635468,252.870117 219.243881,259.255493 
	C221.463577,256.752838 222.490051,253.578171 223.790588,250.578644 
	C225.983856,245.520233 228.345886,240.545486 231.790344,236.213699 
	C236.258362,230.594604 240.026093,224.503555 244.103409,218.619568 
	C250.164383,209.872910 252.925705,200.276779 251.558960,189.799881 
	C249.988525,177.761612 246.087967,166.650635 235.086487,159.792191 
	C220.038116,150.410889 198.519760,154.755753 185.500366,170.009140 
M462.344421,563.579956 
	C474.683441,561.974426 486.519592,563.462524 497.922333,568.723450 
	C507.141876,572.977112 516.699524,576.505066 525.874023,580.847412 
	C540.308167,587.679199 555.210815,589.744324 571.056396,587.714417 
	C595.492676,584.583984 612.918030,558.974792 604.625793,536.460449 
	C596.919312,515.536438 578.346619,507.238251 556.586670,511.389618 
	C542.907776,513.999268 531.988525,522.821655 520.950623,530.926819 
	C514.923950,535.352173 508.824280,539.671936 500.970184,540.584167 
	C496.971039,541.048706 496.219177,543.769470 498.729706,547.022034 
	C505.669739,556.013245 517.505188,555.982056 524.360046,546.877197 
	C532.388000,536.214355 541.587280,526.973206 554.227112,521.843201 
	C556.084473,521.089355 557.933167,519.587708 560.487854,521.086304 
	C559.198120,523.755920 556.652222,524.456909 554.620361,525.635559 
	C545.833862,530.732544 538.279846,537.106079 532.887146,545.834534 
	C528.605591,552.764587 526.821960,558.074707 534.761658,562.864380 
	C535.841980,563.516052 536.528198,564.832703 537.371094,565.862610 
	C538.133545,566.794312 538.965027,567.451965 540.281555,567.516724 
	C549.558594,567.973145 554.486267,563.445801 554.621399,553.983887 
	C554.689636,549.206177 555.514893,544.573364 558.003662,540.593689 
	C561.353149,535.237732 565.379700,530.349854 572.611084,526.864990 
	C570.470276,532.218933 567.103516,534.807129 564.760254,538.106750 
	C561.009155,543.388672 557.786682,548.734436 560.396667,555.622986 
	C561.951843,559.727356 564.556458,562.314453 569.125671,562.666260 
	C575.226440,563.136047 579.403809,560.661316 582.546509,555.124146 
	C585.015686,550.773621 581.080444,549.209412 579.263367,546.790771 
	C576.313110,542.863831 576.045105,539.034851 578.825623,535.895020 
	C581.285156,533.117615 586.160767,532.832458 589.832336,535.262573 
	C591.400330,536.300354 592.476624,537.748901 593.361816,539.392578 
	C597.929321,547.873108 596.674744,556.632324 589.741821,564.187805 
	C578.877014,576.028259 564.773438,576.908447 550.118286,575.818237 
	C536.362671,574.795044 524.252808,568.545105 511.778229,563.527710 
	C498.503845,558.188721 485.479675,552.008362 470.776337,551.792847 
	C461.075775,551.650635 451.259583,551.768433 443.097595,558.032898 
	C427.279480,570.173523 419.828705,594.017334 437.247375,614.455505 
	C442.039703,620.078552 448.323303,623.840332 455.714844,624.497559 
	C468.840454,625.664551 481.536346,623.811340 493.684143,618.171021 
	C507.970673,611.537659 521.866699,603.523376 538.336060,603.362427 
	C538.913696,603.356750 539.485962,602.802063 540.017883,602.525513 
	C537.558838,590.330383 518.395386,581.035645 507.484436,592.370056 
	C502.863922,597.169800 498.093750,601.826416 493.356934,606.513000 
	C488.684418,611.136047 482.883575,613.361511 476.191223,615.308105 
	C476.892700,612.166504 478.868134,611.650330 480.330383,610.735352 
	C485.738678,607.351196 490.514618,603.254578 494.886902,598.625916 
	C503.211548,589.813293 503.717651,582.996704 496.736237,573.167053 
	C495.851837,571.921814 494.948059,571.493652 493.403503,571.687073 
	C484.451721,572.807556 479.665894,576.987244 477.437042,585.755493 
	C476.740387,588.496155 476.135773,591.278137 475.185699,593.932617 
	C472.979431,600.096802 469.036163,605.006409 463.430634,608.355835 
	C461.005920,609.804626 458.168030,611.465820 455.385620,608.699280 
	C455.573700,608.201843 455.601105,607.783936 455.820465,607.614319 
	C456.468323,607.113403 457.156708,606.637939 457.891510,606.280518 
	C466.317047,602.181580 471.296631,595.713928 472.373413,586.211975 
	C472.959320,581.041382 469.964386,574.507141 464.798798,572.217834 
	C460.077728,570.125549 455.975250,572.459106 452.483582,575.385376 
	C448.231354,578.949158 448.514771,580.718811 453.087524,583.898865 
	C456.230347,586.084473 457.961670,589.066589 457.001587,592.894226 
	C455.994843,596.907715 452.751007,598.164673 448.969727,598.315308 
	C443.021698,598.552307 439.415344,594.851257 438.658325,588.531982 
	C436.992188,574.623535 449.649017,565.413025 462.344421,563.579956 
M307.232483,115.368515 
	C306.429901,114.808052 305.672424,113.846825 304.817566,113.750542 
	C297.987305,112.981247 291.091644,118.769585 290.308044,125.792603 
	C289.248657,135.287720 286.864227,144.176514 278.844391,150.409042 
	C277.396606,151.534164 275.958801,153.280533 273.800262,151.898880 
	C273.486542,150.011688 274.763153,149.239212 275.694885,148.392014 
	C280.847290,143.707092 283.377533,137.590408 285.163177,131.098755 
	C286.541565,126.087837 284.764801,122.468201 279.825439,120.929176 
	C274.092102,119.142761 268.589935,119.817719 263.948975,124.038567 
	C260.407867,127.259109 260.630463,129.487366 264.614502,132.107056 
	C268.619446,134.740494 269.700958,140.192047 267.039856,144.332565 
	C264.769836,147.864578 260.070709,148.818619 255.963821,146.384674 
	C251.072205,143.485672 249.119431,138.735657 248.745712,133.384979 
	C247.920471,121.569885 256.778656,109.833069 269.331177,105.796852 
	C281.310211,101.945045 293.077087,103.468857 304.549469,107.712349 
	C321.255554,113.891716 337.624908,121.055122 354.530945,126.600304 
	C372.778961,132.585632 389.922821,131.299332 405.116425,117.022820 
	C424.176300,99.113449 414.946259,70.482582 398.806854,62.276943 
	C387.742035,56.651344 376.381165,54.267887 364.058594,56.590469 
	C344.382843,60.298985 327.094910,70.705391 308.110107,76.343216 
	C305.312042,77.174141 304.921936,79.326935 306.106201,81.970993 
	C308.638794,87.625404 312.868622,90.769096 319.023193,91.685539 
	C326.305511,92.769890 331.955414,89.968018 337.018585,85.076828 
	C342.168091,80.102264 346.940338,74.703079 352.727966,70.429657 
	C354.980438,68.766495 357.226929,66.613968 360.630493,67.541931 
	C360.307220,70.132500 358.343475,71.021233 356.876556,72.263664 
	C350.862396,77.357430 345.474548,83.001122 341.348236,89.758827 
	C340.493195,91.159187 339.449768,92.554680 339.762878,94.366165 
	C340.341522,97.713661 345.649231,103.669670 348.231384,103.899673 
	C356.448273,104.631592 361.543671,102.361580 363.637970,96.767403 
	C365.335388,92.233376 366.882263,87.627518 369.808411,83.716408 
	C371.611176,81.306839 373.387024,78.650497 377.250854,77.997246 
	C377.071960,80.974716 375.451355,82.744720 374.303711,84.664986 
	C372.678406,87.384506 370.908752,90.020401 369.917175,93.059784 
	C367.046143,101.860229 371.823242,108.114182 381.013367,107.684204 
	C383.579468,107.564140 385.924561,106.785103 388.148743,105.615601 
	C394.924530,102.052811 395.220062,98.783302 389.152283,94.251701 
	C386.803223,92.497383 385.576508,90.247421 386.041168,87.362137 
	C386.569641,84.080841 388.687775,82.060196 391.845093,81.169411 
	C394.763489,80.346031 397.122467,81.517426 398.997650,83.618614 
	C401.187164,86.072075 402.058777,89.114716 402.262268,92.350037 
	C402.960938,103.455498 395.638855,112.638069 384.020294,115.207100 
	C374.350525,117.345222 364.727905,116.850014 355.486938,113.494141 
	C341.561432,108.437088 327.933319,102.550156 313.959747,97.639191 
	C294.836731,90.918480 275.605713,88.765182 257.070068,99.674805 
	C252.238647,102.518486 246.873428,105.166618 243.848663,110.035156 
	C238.879730,118.032959 237.294907,126.947029 238.323074,136.405182 
	C239.904022,150.948410 248.454437,161.248581 262.570770,165.473007 
	C278.054016,170.106491 291.992981,166.415726 305.583710,158.627945 
	C318.107941,151.451279 329.272675,141.794708 343.434631,137.545410 
	C343.992462,137.378006 344.399689,136.708618 344.829163,136.316849 
	C343.488403,132.748917 341.882751,130.549881 338.192261,128.477539 
	C330.919861,124.393799 323.578461,122.644020 317.259186,131.586121 
	C313.903076,136.335159 310.016632,140.722565 306.203918,145.129883 
	C304.456146,147.150177 302.770508,149.571259 299.557373,149.696014 
	C298.678131,147.160904 300.428864,145.998337 301.418396,144.605438 
	C303.733551,141.346542 306.288422,138.252930 308.515717,134.937546 
	C314.263336,126.382156 314.103699,123.901711 307.232483,115.368515 
M514.883545,125.651558 
	C507.687683,127.008575 501.025146,129.111328 498.280914,137.138260 
	C498.931824,137.683029 499.266083,138.097397 499.699371,138.297333 
	C500.603210,138.714417 501.532715,139.142639 502.498138,139.349411 
	C512.384155,141.466721 520.628784,146.620087 528.287537,152.981461 
	C532.384094,156.384109 536.663330,159.575089 540.952637,162.736084 
	C555.626526,173.549942 570.845154,173.466339 586.362854,164.726517 
	C604.362061,154.589081 608.698364,127.931122 595.457886,112.176933 
	C580.968567,94.936890 562.000122,92.320045 541.497253,94.917152 
	C526.999023,96.753647 513.823120,103.142609 500.307678,108.331757 
	C487.369202,113.299431 474.039001,117.227066 459.956421,115.268669 
	C445.978729,113.324860 437.354187,99.587646 441.951355,87.456589 
	C443.612396,83.073410 446.901917,81.399307 451.386444,81.751419 
	C456.031342,82.116119 457.384369,85.456535 457.869751,89.325989 
	C458.451874,93.967178 456.234589,97.558846 452.738281,100.602158 
	C456.215851,104.468506 460.318237,105.745110 464.996796,105.805054 
	C474.502167,105.926849 478.730286,100.293320 475.963104,91.221245 
	C474.718658,87.141304 472.357391,83.771423 469.787689,80.461342 
	C468.694092,79.052650 466.795044,77.677574 468.258606,75.112633 
	C471.853088,76.048958 474.247406,78.345383 475.922363,81.231468 
	C477.667267,84.238029 479.184631,87.429184 480.376251,90.694786 
	C484.586700,102.233742 485.713165,100.931068 497.157806,100.900375 
	C502.033539,100.887299 503.590485,96.781509 505.657837,93.401749 
	C507.620819,90.192574 505.405945,87.963669 503.668060,85.850929 
	C497.878479,78.812431 490.941803,73.213638 482.579346,69.401901 
	C480.567841,68.485023 477.724243,68.055717 477.513397,64.808571 
	C480.003082,63.907951 481.979645,64.888931 484.026581,65.482803 
	C494.401337,68.492828 502.912628,74.674278 508.483459,83.512589 
	C515.199890,94.168419 533.900085,89.975288 539.339111,78.878784 
	C539.027222,78.658058 538.664673,78.274300 538.221375,78.114243 
	C537.294373,77.779556 536.337341,77.499077 535.370667,77.307610 
	C526.170044,75.485268 517.433899,72.633507 509.358551,67.590187 
	C499.728851,61.576138 489.380859,57.288174 478.184387,54.618107 
	C455.471924,49.201767 438.904572,60.072899 430.347900,76.850708 
	C427.514618,82.406235 426.755127,88.504601 427.799469,94.830925 
	C432.021820,120.409172 453.918945,130.028732 474.890778,127.232216 
	C490.848572,125.104309 505.994110,120.508247 520.662842,113.821960 
	C534.617859,107.461014 549.174500,104.091858 564.831299,106.556099 
	C579.215027,108.819962 589.733398,117.934349 591.867798,131.329224 
	C593.332336,140.519958 589.056519,148.323776 581.386536,150.458878 
	C575.930359,151.977722 570.236755,148.709671 568.506104,143.065613 
	C567.123779,138.557495 570.039856,133.661026 575.212036,131.805573 
	C581.734192,129.465836 582.128479,127.865730 577.303650,122.810982 
	C576.162231,121.615173 574.892029,120.478203 573.502991,119.593826 
	C566.968201,115.433266 561.397522,117.601677 559.372925,125.022194 
	C558.667419,127.608070 558.638062,130.130417 559.059937,132.863693 
	C559.746460,137.311111 562.360291,141.455002 561.626587,146.170151 
	C559.747986,146.351471 559.312988,145.147766 558.799683,144.149033 
	C555.683838,138.086060 554.237915,131.664368 554.901184,124.845291 
	C555.583679,117.827881 555.457214,117.595276 548.429504,115.943916 
	C547.138000,115.640427 545.717529,115.687897 544.529663,115.173714 
	C538.500610,112.564072 536.268250,117.789772 533.061157,120.745789 
	C530.059631,123.512428 531.211792,126.813438 532.599304,129.974869 
	C535.021301,135.493469 538.299927,140.498474 541.674744,145.466522 
	C542.795593,147.116592 544.688538,148.704376 543.669434,151.409225 
	C541.030212,151.505066 539.911865,149.486160 538.726501,147.835968 
	C535.131958,142.831848 531.793396,137.641068 528.124207,132.694229 
	C525.062195,128.565994 521.239502,125.442078 514.883545,125.651558 
M132.293365,346.808441 
	C132.581375,349.921967 131.853439,353.103760 133.234543,356.150208 
	C135.047440,360.149261 136.439133,360.530762 139.063644,357.064850 
	C143.562958,351.123138 149.158096,346.546661 155.486023,342.724396 
	C157.230316,341.670807 159.402283,340.780823 159.631363,337.628204 
	C150.153488,334.049683 142.431900,327.638367 134.548508,320.619598 
	C133.335083,329.200562 127.634102,337.005951 132.293365,346.808441 
M229.910080,121.359566 
	C225.978821,122.870056 224.218460,127.803085 219.777313,128.231033 
	C215.531143,128.640198 212.714279,131.057159 211.447983,134.463211 
	C209.667191,139.253174 208.098068,144.041153 204.503937,147.629517 
	C206.127090,149.961685 208.094543,149.759872 209.827621,149.553024 
	C216.343445,148.775360 222.760025,149.299057 229.144440,150.619278 
	C233.148590,151.447296 234.462967,149.628708 233.529755,145.958313 
	C231.874695,139.448822 231.484314,132.843933 231.635223,126.168640 
	C231.672195,124.532494 231.819580,122.803040 229.910080,121.359566 
M709.692444,332.120026 
	C709.378296,328.439453 710.877075,324.477386 707.642700,320.460968 
	C700.651428,327.495789 692.545349,332.796509 683.674316,338.521790 
	C692.881714,345.152283 701.059937,351.284271 707.422241,359.781403 
	C710.703308,355.643372 708.292664,350.979248 710.033691,347.733612 
	C712.867371,342.451019 711.780212,337.857513 709.692444,332.120026 
M437.705841,628.753784 
	C439.386566,626.493347 437.224396,625.367126 436.135590,624.196106 
	C431.568878,619.284058 427.813904,613.819031 424.415894,608.065125 
	C423.367462,606.289795 422.430878,604.322510 419.816742,602.696716 
	C418.035522,614.941223 408.434692,621.081055 400.001740,629.043823 
	C402.215179,629.481812 403.342804,629.973450 404.413513,629.870972 
	C409.452637,629.388550 414.183014,629.393738 418.490479,632.953308 
	C420.681915,634.764343 423.465271,633.527283 425.133545,631.422852 
	C426.969574,629.106934 429.050903,628.617493 431.729462,629.270386 
	C433.517212,629.706177 435.345276,629.906250 437.705841,628.753784 
M423.802124,48.712292 
	C416.660675,47.867599 411.417725,53.055775 404.628418,54.194080 
	C411.612610,61.558029 416.616638,69.666580 422.277344,78.576820 
	C425.481476,68.017448 432.569427,60.905972 439.167450,52.761280 
	C433.882996,50.479218 428.538391,52.176109 423.802124,48.712292 
M207.373947,537.204895 
	C210.615402,546.750732 220.823883,549.053772 226.820084,555.782227 
	C228.500000,557.667358 230.337326,556.055176 230.486008,553.810120 
	C231.051163,545.275452 229.857956,536.690002 232.075897,527.097229 
	C222.242645,530.958008 213.013382,530.259644 203.519058,529.979309 
	C204.134506,532.975891 205.709824,534.711792 207.373947,537.204895 
M631.900269,143.681458 
	C629.703430,141.824692 627.992188,139.739761 627.367554,136.757782 
	C626.881348,134.436371 625.514832,132.239197 623.234985,131.415268 
	C618.404846,129.669632 613.943359,127.221756 608.504150,123.812943 
	C609.546387,134.177689 609.385193,143.463516 607.108459,153.488968 
	C615.739075,150.660797 623.662415,149.306549 631.751526,148.628387 
	C634.847900,148.368805 633.858765,145.962906 631.900269,143.681458 
M617.722168,555.108398 
	C626.696106,550.655273 632.224609,542.797241 638.025757,534.787048 
	C629.975098,534.685913 622.316284,533.796570 614.658508,532.780396 
	C612.067139,532.436523 611.166809,534.230835 611.593140,536.652039 
	C612.668213,542.756653 612.676575,548.840637 611.451477,554.934204 
	C611.235107,556.010620 611.055786,557.299744 612.448608,557.985718 
	C614.490906,558.090515 615.684814,556.534180 617.722168,555.108398 
M570.123108,492.595825 
	C568.952942,493.640442 568.272583,494.916473 568.338684,496.515228 
	C568.479675,499.925232 570.180054,502.309570 573.549561,502.755463 
	C576.952881,503.205811 579.578979,501.312531 579.977722,497.984009 
	C580.371399,494.698120 578.189331,492.420959 574.997620,491.506165 
	C573.567200,491.096130 572.035156,491.244629 570.123108,492.595825 
M424.006561,565.444519 
	C426.327698,563.438416 428.073395,561.087524 425.699097,558.222290 
	C423.974915,556.141663 421.626373,554.714600 418.706970,556.476135 
	C416.372772,557.884583 415.524475,560.018250 416.528046,562.429138 
	C417.756897,565.381104 419.708435,567.592285 424.006561,565.444519 
M421.183807,114.468811 
	C417.361633,114.212074 415.522858,116.710007 414.098572,119.673538 
	C413.449371,121.024315 413.713837,122.318314 415.102448,123.120338 
	C417.502960,124.506798 419.946167,125.302711 422.598663,123.628868 
	C425.959229,121.508224 425.730194,118.461212 421.183807,114.468811 
M571.043213,188.526398 
	C575.808105,190.431091 579.080505,188.990906 578.829590,185.056351 
	C578.694946,182.944412 577.774170,181.213776 575.692993,180.422806 
	C574.037048,179.793411 572.401611,179.979431 571.133911,181.331207 
	C569.223083,183.368774 568.709717,185.593399 571.043213,188.526398 
M266.301086,180.079025 
	C263.500427,178.538361 261.189392,179.039566 259.711914,181.923813 
	C258.504822,184.280167 259.019928,186.452011 261.226593,187.973953 
	C263.255432,189.373245 265.332214,189.143799 267.000977,187.343704 
	C269.074860,185.106537 269.460632,182.749664 266.301086,180.079025 
M196.716721,337.291077 
	C195.792053,340.288757 196.014252,343.100189 199.162033,344.488739 
	C201.459045,345.501953 203.318192,343.998474 204.672287,342.155396 
	C206.066254,340.257965 205.811615,338.378265 204.129913,336.791321 
	C201.876923,334.665253 199.508484,334.307617 196.716721,337.291077 
M263.160736,499.636475 
	C266.289307,499.032990 267.290253,496.996979 266.542023,494.134583 
	C265.921204,491.759674 264.049225,490.443604 261.676666,490.750427 
	C259.105804,491.082855 257.497559,492.914612 257.442932,495.553345 
	C257.375641,498.806000 259.531158,499.772247 263.160736,499.636475 
M642.216614,337.233032 
	C640.120361,335.327667 637.931702,334.634949 635.752747,337.021637 
	C634.291748,338.621857 633.623047,340.576385 635.332336,342.313690 
	C636.667236,343.670441 638.273071,345.248444 640.511841,343.767334 
	C642.704163,342.316956 644.623718,340.719788 642.216614,337.233032 
z"/>
<path fill="#000000" opacity="1.000000" stroke="none" 
	d="
M407.000000,477.238251 
	C380.009155,477.247314 353.517700,477.160858 327.028168,477.348450 
	C322.295349,477.381927 320.295502,476.006165 320.728394,471.115234 
	C321.065002,467.312012 320.944275,463.451904 320.791260,459.626465 
	C320.646393,456.004089 322.084778,454.569580 325.776093,454.637756 
	C334.769928,454.803864 343.774994,454.492767 352.763245,454.771240 
	C357.239655,454.909912 358.957520,453.561737 358.951874,448.881989 
	C358.853851,367.577301 358.861023,286.272461 358.953186,204.967758 
	C358.958221,200.526489 357.252686,199.171906 353.025696,199.272141 
	C344.033875,199.485352 335.031036,199.215088 326.037750,199.395218 
	C322.216980,199.471771 320.505157,198.204819 320.739838,194.231659 
	C320.965454,190.412582 321.045685,186.551224 320.746796,182.743225 
	C320.356812,177.774902 322.584564,176.524612 327.207458,176.613403 
	C340.031708,176.859726 352.863678,176.706360 365.692596,176.707504 
	C398.348022,176.710419 431.004547,176.551727 463.658539,176.767624 
	C486.664917,176.919724 508.777039,180.945496 528.055054,194.612503 
	C547.544373,208.429352 558.240295,227.380249 560.463989,251.184021 
	C562.326599,271.122620 559.632141,290.123840 548.471558,307.157806 
	C535.209473,327.399261 515.706787,338.277527 492.508362,343.294128 
	C477.904755,346.452118 463.089752,346.355194 448.266724,346.284271 
	C434.438446,346.218109 420.607452,346.404266 406.782349,346.183655 
	C402.467224,346.114777 400.898651,347.470215 400.921051,351.865875 
	C401.087646,384.519562 401.112122,417.174194 401.061890,449.828339 
	C401.056244,453.500763 402.316925,454.798828 406.012329,454.743958 
	C417.505798,454.573303 429.003479,454.676453 440.499512,454.690002 
	C447.262268,454.697968 447.266113,454.712158 447.283569,461.684509 
	C447.292328,465.183258 447.113770,468.692566 447.328156,472.178131 
	C447.574554,476.184387 445.785431,477.355377 441.986237,477.300018 
	C430.492981,477.132416 418.995697,477.237518 407.000000,477.238251 
M412.550476,323.685883 
	C430.343445,323.163727 448.192535,324.906158 465.935425,322.685913 
	C485.091553,320.288818 499.788391,311.333557 507.859100,293.104126 
	C513.905334,279.447418 514.581238,265.086975 513.178528,250.532791 
	C512.161072,239.976791 509.346832,229.921387 503.089905,221.131546 
	C491.932892,205.458069 475.644745,200.095718 457.502991,199.481781 
	C441.033600,198.924438 424.531281,199.333878 408.043457,199.332275 
	C401.198853,199.331619 401.100311,199.405655 401.091064,206.318344 
	C401.043396,241.957550 401.018127,277.596802 400.987793,313.236053 
	C400.977264,325.635132 400.981781,323.497467 412.550476,323.685883 
z"/>
</svg>